<?xml version="1.0" standalone="no"?><!DOCTYPE svg PUBLIC "-//W3C//DTD SVG 1.1//EN" "http://www.w3.org/Graphics/SVG/1.1/DTD/svg11.dtd"><svg t="1763017874114" class="icon" viewBox="0 0 1024 1024" version="1.1" xmlns="http://www.w3.org/2000/svg" p-id="4898" xmlns:xlink="http://www.w3.org/1999/xlink" width="16" height="16"><path d="M263.129114 585.484713h118.851801v-43.173515H263.129114v-90.235638h140.488413v-42.774684H211.978968v324.150341h196.424537v-43.173515H263.129114zM598.646154 485.07887c-33.003311 0-57.730867 18.047128-80.165141 39.68374h-1.296203l-3.988315-33.501851h-41.378773v242.190458h50.252775V561.754236c21.536904-21.536904 36.991626-33.003311 59.4259-33.003311 28.616164 0 40.979942 16.750925 40.979942 58.52853v146.171762h50.651606V581.097566c0-61.619474-22.932814-96.018695-74.481791-96.018696z" fill="#FFFFFF" p-id="4899"></path><path d="M904.250828 96.616943h-671.03408c-65.009542 0-118.153846 53.144304-118.153846 118.153846v25.824342C52.246933 243.087829 1.495618 295.235054 1.495618 358.64927v423.75852c0 65.009542 53.144304 118.153846 118.153846 118.153846H758.278481c65.009542 0 118.153846-53.144304 118.153846-118.153846v-35.795132h27.818501c65.009542 0 118.153846-53.144304 118.153846-118.153846V214.770789c0-64.909834-53.144304-118.153846-118.153846-118.153846z m-522.269913 445.694255v43.173515H263.129114v104.792989h145.374099v43.173515h-196.424537V409.300876h191.538851v42.674976H263.129114v90.335346h118.851801z m291.14703 191.140019h-50.651606V587.279455c0-41.877313-12.363778-58.52853-40.979942-58.52853-22.434275 0-37.888997 11.466407-59.4259 33.003311v171.796689h-50.252775v-242.290166h41.378773l3.988315 33.501851h1.296203c22.434275-21.536904 47.161831-39.683739 80.165141-39.68374 51.548978 0 74.382084 34.399221 74.382084 96.018696v152.353651z m305.405259-104.892697c0 19.742162-7.777215 38.287829-21.836028 52.446349-14.058812 14.058812-32.704187 21.836027-52.446348 21.836027h-27.818501V358.748978c0-65.009542-53.144304-118.153846-118.153846-118.153847H158.934372v-25.724634c0-19.742162 7.777215-38.287829 21.836027-52.446349 14.058812-14.058812 32.704187-21.836027 52.446349-21.836027h671.03408c19.742162 0 38.287829 7.777215 52.446348 21.836027 14.058812 14.058812 21.836027 32.704187 21.836028 52.446349v413.688023z" fill="#1296db" p-id="4900"></path></svg>